<svg width="600" height="107" viewBox="0 0 600 107" fill="none" xmlns="http://www.w3.org/2000/svg">
<path d="M223 98C221.464 98 220.024 97.68 218.68 97.04C217.4 96.336 216.76 95.312 216.76 93.968V31.664C216.76 30.64 217.176 29.744 218.008 28.976C218.904 28.208 220.088 27.824 221.56 27.824H240.76C244.856 27.824 248.536 28.528 251.8 29.936C255.128 31.344 257.752 33.648 259.672 36.848C261.592 39.984 262.552 44.176 262.552 49.424V50C262.552 55.248 261.56 59.472 259.576 62.672C257.592 65.872 254.872 68.208 251.416 69.68C248.024 71.088 244.216 71.792 239.992 71.792H229.24V93.968C229.24 95.312 228.6 96.336 227.32 97.04C226.04 97.68 224.6 98 223 98ZM229.24 62H239.992C243.128 62 245.592 61.104 247.384 59.312C249.176 57.52 250.072 54.736 250.072 50.96V49.808C250.072 46.096 249.176 43.344 247.384 41.552C245.592 39.696 243.128 38.768 239.992 38.768H229.24V62Z" fill="#ED3C43"/>
<path d="M276.438 98C274.902 98 273.462 97.68 272.118 97.04C270.838 96.336 270.198 95.312 270.198 93.968V31.664C270.198 30.32 270.838 29.36 272.118 28.784C273.462 28.144 274.902 27.824 276.438 27.824C278.038 27.824 279.478 28.144 280.758 28.784C282.038 29.36 282.678 30.32 282.678 31.664V57.872L303.51 29.648C304.342 28.432 305.462 27.824 306.87 27.824C307.958 27.824 309.046 28.144 310.134 28.784C311.286 29.424 312.246 30.224 313.014 31.184C313.782 32.144 314.166 33.168 314.166 34.256C314.166 34.576 314.102 34.96 313.974 35.408C313.846 35.792 313.622 36.208 313.302 36.656L296.214 58.16L317.142 90.032C317.59 90.736 317.814 91.472 317.814 92.24C317.814 93.776 317.014 95.216 315.414 96.56C313.814 97.84 312.118 98.48 310.326 98.48C309.494 98.48 308.694 98.288 307.926 97.904C307.158 97.52 306.486 96.912 305.91 96.08L287.862 68.72L282.678 75.248V93.968C282.678 95.312 282.038 96.336 280.758 97.04C279.478 97.68 278.038 98 276.438 98ZM343.833 98.576C339.609 98.576 335.801 97.872 332.409 96.464C329.017 94.992 326.329 92.656 324.345 89.456C322.361 86.192 321.369 81.872 321.369 76.496V49.808C321.369 44.496 322.361 40.24 324.345 37.04C326.329 33.776 329.017 31.44 332.409 30.032C335.801 28.56 339.609 27.824 343.833 27.824C348.057 27.824 351.865 28.56 355.257 30.032C358.649 31.44 361.337 33.776 363.321 37.04C365.369 40.24 366.393 44.496 366.393 49.808V76.496C366.393 81.872 365.369 86.192 363.321 89.456C361.337 92.656 358.649 94.992 355.257 96.464C351.865 97.872 348.057 98.576 343.833 98.576ZM343.833 87.632C346.969 87.632 349.433 86.736 351.225 84.944C353.017 83.152 353.913 80.336 353.913 76.496V49.808C353.913 46.032 353.017 43.248 351.225 41.456C349.433 39.664 346.969 38.768 343.833 38.768C340.697 38.768 338.233 39.664 336.441 41.456C334.713 43.248 333.849 46.032 333.849 49.808V76.496C333.849 80.336 334.713 83.152 336.441 84.944C338.233 86.736 340.697 87.632 343.833 87.632ZM415.662 98.48C413.806 98.48 412.366 97.488 411.342 95.504L397.71 69.008H389.646V93.968C389.646 95.312 389.006 96.336 387.726 97.04C386.446 97.68 385.006 98 383.406 98C381.87 98 380.43 97.68 379.086 97.04C377.806 96.336 377.166 95.312 377.166 93.968V31.664C377.166 30.64 377.518 29.744 378.222 28.976C378.99 28.208 379.982 27.824 381.198 27.824H400.206C404.43 27.824 408.238 28.432 411.63 29.648C415.086 30.864 417.838 32.944 419.886 35.888C421.934 38.768 422.958 42.768 422.958 47.888C422.958 53.456 421.774 57.776 419.406 60.848C417.038 63.92 414.03 66 410.382 67.088L423.054 90.416C423.31 90.864 423.438 91.376 423.438 91.952C423.438 93.04 423.054 94.096 422.286 95.12C421.518 96.08 420.526 96.88 419.31 97.52C418.158 98.16 416.942 98.48 415.662 98.48ZM389.646 59.216H400.206C403.342 59.216 405.838 58.48 407.694 57.008C409.55 55.472 410.478 52.816 410.478 49.04C410.478 45.264 409.55 42.608 407.694 41.072C405.838 39.536 403.342 38.768 400.206 38.768H389.646V59.216ZM453.521 98.576C449.297 98.576 445.489 97.872 442.097 96.464C438.705 94.992 436.017 92.656 434.033 89.456C432.049 86.192 431.057 81.872 431.057 76.496V49.808C431.057 44.496 432.049 40.24 434.033 37.04C436.017 33.776 438.705 31.44 442.097 30.032C445.489 28.56 449.297 27.824 453.521 27.824C457.745 27.824 461.553 28.56 464.945 30.032C468.337 31.44 471.025 33.776 473.009 37.04C475.057 40.24 476.081 44.496 476.081 49.808V76.496C476.081 81.872 475.057 86.192 473.009 89.456C471.025 92.656 468.337 94.992 464.945 96.464C461.553 97.872 457.745 98.576 453.521 98.576ZM453.521 87.632C456.657 87.632 459.121 86.736 460.913 84.944C462.705 83.152 463.601 80.336 463.601 76.496V49.808C463.601 46.032 462.705 43.248 460.913 41.456C459.121 39.664 456.657 38.768 453.521 38.768C450.385 38.768 447.921 39.664 446.129 41.456C444.401 43.248 443.537 46.032 443.537 49.808V76.496C443.537 80.336 444.401 83.152 446.129 84.944C447.921 86.736 450.385 87.632 453.521 87.632ZM493.094 98C491.558 98 490.118 97.68 488.774 97.04C487.494 96.336 486.854 95.312 486.854 93.968V31.76C486.854 30.416 487.494 29.424 488.774 28.784C490.118 28.144 491.558 27.824 493.094 27.824C494.63 27.824 495.878 27.984 496.838 28.304C497.862 28.624 498.79 29.264 499.622 30.224C500.518 31.12 501.446 32.528 502.406 34.448L520.934 70.256V31.664C520.934 30.32 521.574 29.36 522.854 28.784C524.198 28.144 525.638 27.824 527.174 27.824C528.774 27.824 530.214 28.144 531.494 28.784C532.774 29.36 533.414 30.32 533.414 31.664V93.968C533.414 95.312 532.774 96.336 531.494 97.04C530.214 97.68 528.774 98 527.174 98C525.702 98 524.326 97.712 523.046 97.136C521.83 96.56 520.838 95.536 520.07 94.064L499.334 55.472V93.968C499.334 95.312 498.694 96.336 497.414 97.04C496.134 97.68 494.694 98 493.094 98ZM548.049 98C546.897 98 545.713 97.776 544.497 97.328C543.281 96.88 542.257 96.272 541.425 95.504C540.593 94.736 540.177 93.84 540.177 92.816C540.177 92.624 540.209 92.304 540.273 91.856L558.801 31.472C559.249 30.064 560.241 29.008 561.777 28.304C563.377 27.6 565.073 27.248 566.865 27.248C568.657 27.248 570.321 27.6 571.857 28.304C573.457 29.008 574.481 30.064 574.929 31.472L593.457 91.856C593.585 92.304 593.649 92.624 593.649 92.816C593.649 93.84 593.201 94.736 592.305 95.504C591.473 96.272 590.449 96.88 589.233 97.328C588.017 97.776 586.833 98 585.681 98C584.657 98 583.761 97.808 582.993 97.424C582.289 97.04 581.809 96.4 581.553 95.504L577.905 82.736H555.825L552.273 95.504C552.017 96.4 551.505 97.04 550.737 97.424C549.969 97.808 549.073 98 548.049 98ZM558.513 72.944H575.217L566.865 43.472L558.513 72.944Z" fill="#303031"/>
<path d="M24.48 98.864C20.256 98.864 16.48 98.256 13.152 97.04C9.824 95.824 7.168 94.32 5.184 92.528C3.264 90.672 2.304 88.816 2.304 86.96C2.304 86.064 2.528 85.104 2.976 84.08C3.488 82.992 4.16 82.096 4.992 81.392C5.824 80.624 6.752 80.24 7.776 80.24C8.736 80.24 9.664 80.624 10.56 81.392C11.52 82.096 12.576 82.96 13.728 83.984C14.88 84.944 16.288 85.808 17.952 86.576C19.616 87.28 21.664 87.632 24.096 87.632C26.976 87.632 29.472 86.96 31.584 85.616C33.76 84.272 34.848 82.16 34.848 79.28C34.848 76.848 34.112 74.896 32.64 73.424C31.168 71.888 29.248 70.576 26.88 69.488C24.576 68.336 22.112 67.184 19.488 66.032C16.864 64.88 14.368 63.536 12 62C9.632 60.4 7.712 58.384 6.24 55.952C4.768 53.456 4.032 50.32 4.032 46.544C4.032 42.96 4.704 39.952 6.048 37.52C7.456 35.024 9.28 33.04 11.52 31.568C13.824 30.096 16.352 29.04 19.104 28.4C21.856 27.696 24.608 27.344 27.36 27.344C28.768 27.344 30.496 27.472 32.544 27.728C34.592 27.92 36.608 28.304 38.592 28.88C40.64 29.392 42.304 30.16 43.584 31.184C44.928 32.208 45.6 33.488 45.6 35.024C45.6 35.792 45.408 36.72 45.024 37.808C44.704 38.832 44.16 39.728 43.392 40.496C42.688 41.264 41.76 41.648 40.608 41.648C39.584 41.648 38.56 41.36 37.536 40.784C36.576 40.144 35.296 39.536 33.696 38.96C32.16 38.32 30.048 38 27.36 38C23.904 38 21.216 38.672 19.296 40.016C17.44 41.296 16.512 43.088 16.512 45.392C16.512 47.376 17.248 49.008 18.72 50.288C20.192 51.504 22.112 52.624 24.48 53.648C26.848 54.608 29.344 55.664 31.968 56.816C34.592 57.968 37.056 59.408 39.36 61.136C41.728 62.864 43.648 65.072 45.12 67.76C46.592 70.448 47.328 73.872 47.328 78.032C47.328 82.576 46.336 86.416 44.352 89.552C42.432 92.624 39.744 94.96 36.288 96.56C32.832 98.096 28.896 98.864 24.48 98.864ZM75.2145 98C73.6145 98 72.1745 97.68 70.8945 97.04C69.6145 96.336 68.9745 95.312 68.9745 93.968V39.056H54.8625C53.6465 39.056 52.6865 38.512 51.9825 37.424C51.2785 36.272 50.9265 34.928 50.9265 33.392C50.9265 32.048 51.2465 30.8 51.8865 29.648C52.5265 28.432 53.5185 27.824 54.8625 27.824H95.4705C96.8145 27.824 97.8065 28.432 98.4465 29.648C99.0865 30.8 99.4065 32.048 99.4065 33.392C99.4065 34.928 99.0545 36.272 98.3505 37.424C97.7105 38.512 96.7505 39.056 95.4705 39.056H81.4545V93.968C81.4545 95.312 80.7825 96.336 79.4385 97.04C78.1585 97.68 76.7505 98 75.2145 98Z" fill="#ED3C43"/>
<path fill-rule="evenodd" clip-rule="evenodd" d="M156.704 7.00033C155.102 7.00591 153.497 7.08776 151.895 7.24705C148.995 7.5355 147.231 9.8013 147.689 12.0132C148.133 14.1565 150.337 15.5168 152.5 15.3912L152.971 19.8762C145.706 20.6623 138.831 23.5603 133.195 28.212L130.356 24.7614C131.965 23.3059 132.521 20.7875 131.295 18.9743C130.031 17.1049 127.197 16.7652 124.976 18.6131C122.518 20.6579 120.249 22.9386 118.21 25.4289C116.363 27.6836 116.718 30.533 118.606 31.7734C120.435 32.9753 122.956 32.3783 124.396 30.7603L127.892 33.5914C123.306 39.2846 120.489 46.1975 119.791 53.4748L115.363 53.0441C115.472 50.8769 114.084 48.7035 111.936 48.2882C109.72 47.86 107.476 49.6233 107.212 52.5006C106.919 55.6847 106.928 58.9016 107.247 62.1049C107.535 65.0052 109.801 66.7686 112.013 66.3107C114.156 65.8672 115.517 63.6627 115.391 61.5002L119.876 61.029C120.662 68.294 123.56 75.1694 128.212 80.8052L124.761 83.6445C123.306 82.0351 120.788 81.4791 118.975 82.7049C117.105 83.9688 116.765 86.8027 118.613 89.024C120.658 91.4821 122.939 93.7507 125.429 95.7905C127.684 97.6373 130.533 97.2817 131.773 95.3939C132.975 93.5647 132.379 91.0442 130.761 89.604L133.592 86.1078C139.285 90.6941 146.198 93.5106 153.475 94.2088L153.044 98.6368C150.877 98.5279 148.703 99.9156 148.288 102.064C147.86 104.28 149.624 106.524 152.501 106.788C155.685 107.081 158.902 107.072 162.105 106.753C165.005 106.465 166.768 104.198 166.311 101.986C165.867 99.8431 163.663 98.4828 161.5 98.6084L161.029 94.1238C168.294 93.3377 175.169 90.4397 180.805 85.788L183.644 89.2386C182.035 90.6941 181.479 93.2121 182.705 95.0253C183.969 96.8948 186.803 97.2348 189.024 95.3869C191.482 93.3421 193.751 91.061 195.79 88.5708C197.637 86.316 197.282 83.467 195.394 82.2266C193.565 81.0248 191.044 81.6214 189.604 83.2393L186.108 80.4082C190.694 74.7151 193.51 67.8024 194.209 60.5253L198.637 60.9559C198.528 63.1231 199.915 65.2965 202.064 65.7118C204.28 66.14 206.524 64.3763 206.788 61.499C207.08 58.3149 207.071 55.098 206.753 51.8947C206.464 48.9944 204.199 47.231 201.987 47.6888C199.843 48.1325 198.483 50.3369 198.608 52.4994L194.124 52.971C193.338 45.706 190.44 38.8306 185.788 33.1949L189.239 30.3555C190.694 31.965 193.213 32.5209 195.026 31.2951C196.895 30.0312 197.235 27.197 195.387 24.9756C193.342 22.5175 191.061 20.2493 188.571 18.2095C186.316 16.3627 183.467 16.7179 182.227 18.6057C181.025 20.4349 181.622 22.9558 183.24 24.396L180.409 27.8922C174.715 23.3058 167.803 20.4893 160.525 19.7912L160.956 15.3632C163.123 15.4721 165.296 14.0845 165.712 11.9356C166.14 9.71998 164.376 7.47578 161.499 7.2117C159.907 7.06559 158.307 6.99483 156.704 7.00029V7.00033Z" fill="#ED3C43"/>
<path d="M140.279 45.2514C142.814 45.2514 144.869 43.1965 144.869 40.6617C144.869 38.1269 142.814 36.072 140.279 36.072C137.744 36.072 135.689 38.1269 135.689 40.6617C135.689 43.1965 137.744 45.2514 140.279 45.2514Z" fill="#EA1821"/>
<path d="M133.875 70.6846C138.33 70.6846 141.941 67.0733 141.941 62.6185C141.941 58.1637 138.33 54.5524 133.875 54.5524C129.42 54.5524 125.809 58.1637 125.809 62.6185C125.809 67.0733 129.42 70.6846 133.875 70.6846Z" fill="#EA1821"/>
<path d="M151.258 85.8717C154.096 85.8717 156.396 83.5711 156.396 80.7332C156.396 77.8953 154.096 75.5947 151.258 75.5947C148.42 75.5947 146.119 77.8953 146.119 80.7332C146.119 83.5711 148.42 85.8717 151.258 85.8717Z" fill="#EA1821"/>
<path d="M178.774 61.1633C183.431 61.1633 187.206 57.3882 187.206 52.7313C187.206 48.0744 183.431 44.2992 178.774 44.2992C174.117 44.2992 170.342 48.0744 170.342 52.7313C170.342 57.3882 174.117 61.1633 178.774 61.1633Z" fill="#EA1821"/>
<path d="M162.053 33.1749C163.173 33.1749 164.081 32.267 164.081 31.147C164.081 30.027 163.173 29.119 162.053 29.119C160.933 29.119 160.025 30.027 160.025 31.147C160.025 32.267 160.933 33.1749 162.053 33.1749Z" fill="#EA1821"/>
<path d="M157.195 55.8218C160.74 55.8218 163.614 52.9477 163.614 49.4023C163.614 45.857 160.74 42.9829 157.195 42.9829C153.65 42.9829 150.776 45.857 150.776 49.4023C150.776 52.9477 153.65 55.8218 157.195 55.8218Z" fill="#EA1821"/>
<path d="M167.089 78.7224C169.017 78.7224 170.58 77.1592 170.58 75.2308C170.58 73.3025 169.017 71.7393 167.089 71.7393C165.16 71.7393 163.597 73.3025 163.597 75.2308C163.597 77.1592 165.16 78.7224 167.089 78.7224Z" fill="#EA1821"/>
</svg>
